<?xml version="1.0" standalone="no"?>
<!DOCTYPE svg PUBLIC "-//W3C//DTD SVG 20010904//EN"
 "http://www.w3.org/TR/2001/REC-SVG-20010904/DTD/svg10.dtd">
<svg version="1.0" xmlns="http://www.w3.org/2000/svg"
 width="120.000000pt" height="120.000000pt" viewBox="0 0 120.000000 120.000000"
 preserveAspectRatio="xMidYMid meet">
<metadata>
Created by potrace 1.11, written by Peter Selinger 2001-2013
</metadata>
<g transform="translate(0.000000,120.000000) scale(0.100000,-0.100000)"
fill="#000000" stroke="none">
<path d="M232 1163 c-6 -10 -15 -53 -22 -95 l-13 -77 -56 -12 c-117 -24 -116
-24 -119 -50 -4 -31 5 -39 86 -79 47 -23 62 -35 58 -48 -2 -9 -7 -39 -11 -67
-3 -27 -8 -58 -11 -67 -5 -18 28 -58 47 -58 6 0 42 30 79 66 l68 65 72 -36
c76 -38 106 -41 124 -12 9 15 3 33 -32 99 l-44 81 56 56 c57 57 68 88 42 110
-11 9 -33 9 -96 -2 l-82 -14 -17 29 c-65 118 -107 153 -129 111z"/>
<path d="M908 1163 c-8 -10 -28 -40 -43 -68 -44 -77 -36 -74 -126 -58 -62 11
-84 11 -95 2 -26 -22 -15 -53 42 -110 l56 -56 -44 -81 c-35 -66 -41 -84 -32
-99 18 -29 48 -26 124 12 l72 36 68 -65 c37 -36 73 -66 79 -66 19 0 52 40 47
58 -3 9 -8 40 -11 67 -4 28 -9 58 -11 67 -4 13 11 25 58 48 81 40 90 48 86 79
-3 26 -2 26 -119 50 l-56 12 -13 77 c-14 90 -24 112 -49 112 -10 0 -25 -8 -33
-17z"/>
<path d="M256 524 c-22 -21 -20 -99 4 -151 27 -61 101 -130 178 -166 61 -29
76 -32 162 -32 86 0 101 3 162 32 77 36 151 105 178 166 24 52 26 130 4 151
-19 19 -19 19 -124 1 -47 -8 -145 -15 -220 -15 -75 0 -173 7 -220 15 -105 18
-105 18 -124 -1z m242 -83 c104 -6 270 0 352 14 l45 8 -25 -27 c-13 -15 -54
-41 -89 -59 -62 -30 -71 -32 -181 -32 -110 0 -119 2 -181 32 -35 18 -76 44
-89 59 l-25 27 45 -8 c25 -4 91 -10 148 -14z"/>
</g>
</svg>
